<svg t="1711701728190" class="icon" viewBox="0 0 1024 1024" version="1.1" xmlns="http://www.w3.org/2000/svg" p-id="1235" width="200" height="200"><path d="M512 512m-512 0a512 512 0 1 0 1024 0 512 512 0 1 0-1024 0Z" fill="#333333" p-id="1236"></path><path d="M685.824 652.8c-0.512-1.536-0.768-2.816-1.28-4.352-10.24 0-20.736 0.512-30.976-0.256-6.656-0.256-15.872 3.584-18.688-4.608-2.304-6.656 5.888-10.752 10.24-15.36 23.04-23.552 47.104-46.336 68.864-70.912 24.832-27.904 21.248-61.696-7.424-84.992-9.472-7.936-19.456-15.104-29.184-23.04-114.432-91.648-222.208-190.72-332.288-287.488-19.2-16.896-26.112-14.592-33.792 9.728-22.528 70.656-0.512 141.056 59.648 189.184 41.472 33.28 87.552 59.392 134.912 83.2 5.888 3.072 13.056 4.864 17.408 11.264-8.192 4.096-13.312-1.28-18.944-3.584-66.56-28.672-130.56-62.208-188.416-106.496-4.864-3.84-9.984-9.472-17.152-5.12-5.888 3.584-5.12 9.984-5.376 15.872-2.56 64.256 39.68 125.952 101.888 148.48 28.928 10.496 58.88 16.128 89.088 20.992 4.352 0.768 9.984-0.768 11.008 6.4-8.448 5.12-17.152 2.048-25.6 1.28-37.632-3.328-74.24-11.776-110.08-24.064-4.864-1.792-10.496-4.352-14.592 0.768-4.096 4.864-2.048 9.984 0.256 14.848 2.816 5.888 5.632 11.776 9.216 17.152 28.928 41.472 68.352 63.232 119.04 65.024 19.968 0.768 21.504 3.072 11.776 19.968-9.728 16.896-19.456 33.536-29.44 50.176-6.912 11.264-3.584 16.128 9.216 15.872 9.472 0 18.944-0.256 28.16 0.512 17.408 1.024 18.944 4.096 10.24 18.944-20.736 34.816-41.984 69.632-62.72 104.448-3.072 5.12-7.936 9.728-6.656 19.712 85.504-61.696 168.704-122.624 251.648-183.552z" fill="#FFFFFF" p-id="1237"></path></svg>